#N canvas 403 166 902 572 10;
#N canvas 1098 160 667 549 moods 0;
#X obj -131 149 bng 15 250 50 0 empty empty empty 17 7 0 10 -262144
-1 -1;
#X floatatom -131 257 5 0 0 0 - - -;
#X obj 305 325 image 01fogo.gif;
#X msg -125 366 open 01fogo.gif;
#X msg -131 334 open 00espaco.gif;
#X msg -113 406 open 02ar.gif;
#X msg -108 446 open 03agua.gif;
#X msg -99 483 open 04terra.gif;
#X obj -131 280 sel 0 1 2 3 4;
#X obj -113 98 inlet;
#X floatatom -61 257 5 0 0 0 - - -;
#N canvas 1102 400 450 300 urn 0;
#X obj -33 168 delay 100;
#X msg -33 108 clear;
#X obj -69 168 urn 4;
#X obj -10 139 t a b;
#X obj -9 243 bng 15 250 50 0 empty empty empty 17 7 0 10 -262144 -1
-1;
#X connect 0 0 1 0;
#X connect 1 0 3 0;
#X connect 2 1 0 0;
#X connect 2 1 4 0;
#X connect 3 0 2 0;
#X restore -40 162 pd urn;
#X obj -131 234 i;
#X msg -33 220 clear;
#X obj -38 195 delay 50;
#X obj -124 173 urn 40;
#X obj -102 202 / 10;
#X connect 0 0 15 0;
#X connect 1 0 8 0;
#X connect 3 0 2 0;
#X connect 4 0 2 0;
#X connect 5 0 2 0;
#X connect 6 0 2 0;
#X connect 7 0 2 0;
#X connect 8 0 4 0;
#X connect 8 1 3 0;
#X connect 8 2 5 0;
#X connect 8 3 6 0;
#X connect 8 4 7 0;
#X connect 9 0 0 0;
#X connect 10 0 8 0;
#X connect 12 0 1 0;
#X connect 13 0 15 0;
#X connect 14 0 13 0;
#X connect 15 0 16 0;
#X connect 15 1 14 0;
#X connect 16 0 12 0;
#X coords 0 -1 1 1 410 410 1 100 100;
#X restore 29 19 pd moods;
#X obj 29 -32 bng 50 250 50 0 empty empty empty 17 7 0 10 -258113 -1
-1;
#N canvas 807 8 1005 703 shutup 0;
#X obj 129 333 tgl 30 0 empty foo_1 1 0 -20 0 50 -258699 -90133 -90133
0 1;
#X obj 518 126 sel 0 1;
#X obj 518 99 r p1;
#X obj 658 126 sel 0 1;
#X obj 658 99 r p2;
#X msg 658 183 \; foo_2 color \$1 29 29;
#X obj 798 126 sel 0 1;
#X obj 798 99 r p3;
#X msg 798 183 \; foo_3 color \$1 29 29;
#X obj 169 303 tgl 30 0 empty foo_2 2 0 -20 0 50 -258699 -90133 -90133
0 1;
#X obj 209 283 tgl 30 0 empty foo_3 3 0 -20 0 50 -258699 -90133 -90133
0 1;
#X obj 249 263 tgl 30 0 empty foo_4 4 0 -20 0 50 -258699 -90133 -90133
0 1;
#X obj 289 243 tgl 30 0 empty foo_5 5 0 -20 0 50 -258699 -90133 -90133
0 1;
#X obj 329 263 tgl 30 0 empty foo_6 6 0 -20 0 50 -258699 -90133 -90133
0 1;
#X obj 369 283 tgl 30 0 empty foo_7 7 0 -20 0 50 -258699 -90133 -90133
0 1;
#X obj 409 303 tgl 30 0 empty foo_8 8 0 -20 0 50 -258699 -90133 -90133
0 1;
#X obj 449 333 tgl 30 0 empty foo_9 9 0 -20 0 50 -258699 -90133 -90133
0 1;
#X obj 658 276 sel 0 1;
#X obj 798 276 sel 0 1;
#X obj 518 276 sel 0 1;
#X obj 518 249 r p4;
#X obj 658 249 r p5;
#X obj 798 249 r p6;
#X msg 518 333 \; foo_4 color \$1 29 29;
#X msg 658 333 \; foo_5 color \$1 29 29;
#X msg 798 333 \; foo_6 color \$1 29 29;
#X obj 658 416 sel 0 1;
#X obj 798 416 sel 0 1;
#X obj 518 416 sel 0 1;
#X obj 518 389 r p7;
#X obj 658 389 r p8;
#X obj 798 389 r p9;
#X msg 518 473 \; foo_7 color \$1 29 29;
#X msg 658 473 \; foo_8 color \$1 29 29;
#X msg 798 473 \; foo_9 color \$1 29 29;
#X msg 658 155 13;
#X msg 698 155 16;
#X msg 798 155 13;
#X msg 838 155 16;
#X msg 518 305 13;
#X msg 798 305 13;
#X msg 658 305 13;
#X msg 558 305 16;
#X msg 698 305 16;
#X msg 838 305 16;
#X msg 838 445 16;
#X msg 698 445 16;
#X msg 558 445 16;
#X msg 518 445 13;
#X msg 658 445 13;
#X msg 798 445 13;
#X obj 103 35 inlet;
#X obj 103 67 s p1;
#X obj 153 35 inlet;
#X obj 203 35 inlet;
#X obj 253 35 inlet;
#X obj 303 35 inlet;
#X obj 353 35 inlet;
#X obj 403 35 inlet;
#X obj 453 35 inlet;
#X obj 503 35 inlet;
#X obj 153 67 s p2;
#X obj 203 67 s p3;
#X obj 253 67 s p4;
#X obj 303 67 s p5;
#X obj 353 67 s p6;
#X obj 403 67 s p7;
#X obj 453 67 s p8;
#X obj 503 67 s p9;
#X msg 518 155 13;
#X msg 558 155 16;
#X msg 518 183 \; foo_1 color \$1 29 29;
#X obj 25 99 tgl 15 0 empty empty empty 17 7 0 10 -262144 -1 -1 0 1
;
#X obj 601 158 bng 15 250 50 0 empty empty empty 17 7 0 10 -262144
-1 -1;
#X floatatom 18 82 5 0 0 0 - - -;
#X connect 1 0 69 0;
#X connect 1 1 70 0;
#X connect 1 1 73 0;
#X connect 2 0 1 0;
#X connect 2 0 72 0;
#X connect 3 0 35 0;
#X connect 3 1 36 0;
#X connect 4 0 3 0;
#X connect 6 0 37 0;
#X connect 6 1 38 0;
#X connect 7 0 6 0;
#X connect 17 0 41 0;
#X connect 17 1 43 0;
#X connect 18 0 40 0;
#X connect 18 1 44 0;
#X connect 19 0 39 0;
#X connect 19 1 42 0;
#X connect 20 0 19 0;
#X connect 21 0 17 0;
#X connect 22 0 18 0;
#X connect 26 0 49 0;
#X connect 26 1 46 0;
#X connect 27 0 50 0;
#X connect 27 1 45 0;
#X connect 28 0 48 0;
#X connect 28 1 47 0;
#X connect 29 0 28 0;
#X connect 30 0 26 0;
#X connect 31 0 27 0;
#X connect 35 0 5 0;
#X connect 36 0 5 0;
#X connect 37 0 8 0;
#X connect 38 0 8 0;
#X connect 39 0 23 0;
#X connect 40 0 25 0;
#X connect 41 0 24 0;
#X connect 42 0 23 0;
#X connect 43 0 24 0;
#X connect 44 0 25 0;
#X connect 45 0 34 0;
#X connect 46 0 33 0;
#X connect 47 0 32 0;
#X connect 48 0 32 0;
#X connect 49 0 33 0;
#X connect 50 0 34 0;
#X connect 51 0 52 0;
#X connect 51 0 74 0;
#X connect 53 0 61 0;
#X connect 54 0 62 0;
#X connect 55 0 63 0;
#X connect 56 0 64 0;
#X connect 57 0 65 0;
#X connect 58 0 66 0;
#X connect 59 0 67 0;
#X connect 60 0 68 0;
#X connect 69 0 71 0;
#X connect 70 0 71 0;
#X coords 0 -1 1 1 410 410 1 100 100;
#X restore 445 18 pd shutup;
#X obj 445 -30 tgl 15 0 empty empty empty 17 7 0 10 -262144 -1 -1 0
1;
#X obj 495 -30 tgl 15 0 empty empty empty 17 7 0 10 -262144 -1 -1 0
1;
#X obj 545 -30 tgl 15 0 empty empty empty 17 7 0 10 -262144 -1 -1 0
1;
#X obj 596 -30 tgl 15 0 empty empty empty 17 7 0 10 -262144 -1 -1 0
1;
#X obj 696 -30 tgl 15 0 empty empty empty 17 7 0 10 -262144 -1 -1 0
1;
#X obj 747 -30 tgl 15 0 empty empty empty 17 7 0 10 -262144 -1 -1 0
1;
#X obj 797 -30 tgl 15 0 empty empty empty 17 7 0 10 -262144 -1 -1 0
1;
#X obj 848 -30 tgl 15 0 empty empty empty 17 7 0 10 -262144 -1 -1 0
1;
#X obj 445 -67 key;
#X floatatom 470 -66 5 0 0 0 - - -;
#X obj 866 -45 tgl 15 0 empty empty empty 17 7 0 10 -262144 -1 -1 0
1;
#X obj 646 -30 tgl 15 1 empty empty 17 7 0 0 1.65798e+007 -262144 -1
-262144 0 1;
#X obj 445 -47 sel 49 50 51 52 53 54 55 56 57 48 32;
#X connect 1 0 0 0;
#X connect 3 0 2 0;
#X connect 4 0 2 1;
#X connect 5 0 2 2;
#X connect 6 0 2 3;
#X connect 7 0 2 5;
#X connect 8 0 2 6;
#X connect 9 0 2 7;
#X connect 10 0 2 8;
#X connect 11 0 12 0;
#X connect 11 0 15 0;
#X connect 13 0 10 0;
#X connect 13 0 9 0;
#X connect 13 0 8 0;
#X connect 13 0 7 0;
#X connect 13 0 6 0;
#X connect 13 0 5 0;
#X connect 13 0 4 0;
#X connect 13 0 3 0;
#X connect 13 0 14 0;
#X connect 14 0 2 4;
#X connect 15 0 3 0;
#X connect 15 1 4 0;
#X connect 15 2 5 0;
#X connect 15 3 6 0;
#X connect 15 4 14 0;
#X connect 15 5 7 0;
#X connect 15 6 8 0;
#X connect 15 7 9 0;
#X connect 15 8 10 0;
#X connect 15 9 13 0;
#X connect 15 10 1 0;
